REM DIRINDEX 1\2,1\3,1\4,1\5
REM DIRNAME cjc005,folder01,folder02,folder03,folder04
TITLE ""
FILE "P1Q_j_1663-1676.mp3" MP3
  TRACK 01 AUDIO
    TITLE "3:cjc005_0338"
    INDEX 01 00:00:00
  TRACK 02 AUDIO
    TITLE "0:"
    INDEX 01 00:01:09
  TRACK 03 AUDIO
    TITLE "4:cjc005_0339"
    INDEX 01 00:01:44
  TRACK 04 AUDIO
    TITLE "0:"
    INDEX 01 00:02:55
  TRACK 05 AUDIO
    TITLE "5:cjc005_0340"
    INDEX 01 00:03:04
  TRACK 06 AUDIO
    TITLE "0:"
    INDEX 01 00:06:33
  TRACK 07 AUDIO
    TITLE "3:cjc005_0341"
    INDEX 01 00:07:09
  TRACK 08 AUDIO
    TITLE "0:"
    INDEX 01 00:08:60
  TRACK 09 AUDIO
    TITLE "4:cjc005_0342"
    INDEX 01 00:09:18
  TRACK 10 AUDIO
    TITLE "0:"
    INDEX 01 00:11:09
  TRACK 11 AUDIO
    TITLE "5:cjc005_0343"
    INDEX 01 00:11:37
  TRACK 12 AUDIO
    TITLE "0:"
    INDEX 01 00:14:51
  TRACK 13 AUDIO
    TITLE "3:cjc005_0344"
    INDEX 01 00:15:36
  TRACK 14 AUDIO
    TITLE "0:"
    INDEX 01 00:16:63
  TRACK 15 AUDIO
    TITLE "4:cjc005_0345"
    INDEX 01 00:17:18
  TRACK 16 AUDIO
    TITLE "0:"
    INDEX 01 00:18:42
  TRACK 17 AUDIO
    TITLE "5:cjc005_0346"
    INDEX 01 00:18:62
  TRACK 18 AUDIO
    TITLE "0:"
    INDEX 01 00:22:30
  TRACK 19 AUDIO
    TITLE "3:cjc005_0347"
    INDEX 01 00:23:10
  TRACK 20 AUDIO
    TITLE "0:"
    INDEX 01 00:24:31
  TRACK 21 AUDIO
    TITLE "4:cjc005_0348"
    INDEX 01 00:24:63
  TRACK 22 AUDIO
    TITLE "0:"
    INDEX 01 00:26:48
  TRACK 23 AUDIO
    TITLE "5:cjc005_0349"
    INDEX 01 00:27:02
  TRACK 24 AUDIO
    TITLE "0:"
    INDEX 01 00:30:52
  TRACK 25 AUDIO
    TITLE "3:cjc005_0350"
    INDEX 01 00:31:29
  TRACK 26 AUDIO
    TITLE "0:"
    INDEX 01 00:32:64
  TRACK 27 AUDIO
    TITLE "4:cjc005_0351"
    INDEX 01 00:33:21
  TRACK 28 AUDIO
    TITLE "0:"
    INDEX 01 00:35:04
  TRACK 29 AUDIO
    TITLE "5:cjc005_0352"
    INDEX 01 00:35:27
  TRACK 30 AUDIO
    TITLE "0:"
    INDEX 01 00:38:12
  TRACK 31 AUDIO
    TITLE "3:cjc005_0353"
    INDEX 01 00:38:65
  TRACK 32 AUDIO
    TITLE "0:"
    INDEX 01 00:40:54
  TRACK 33 AUDIO
    TITLE "4:cjc005_0354"
    INDEX 01 00:41:06
  TRACK 34 AUDIO
    TITLE "0:"
    INDEX 01 00:42:45
  TRACK 35 AUDIO
    TITLE "5:cjc005_0355"
    INDEX 01 00:42:68
  TRACK 36 AUDIO
    TITLE "0:"
    INDEX 01 00:46:33
  TRACK 37 AUDIO
    TITLE "3:cjc005_0356"
    INDEX 01 00:47:17
  TRACK 38 AUDIO
    TITLE "0:"
    INDEX 01 00:48:42
  TRACK 39 AUDIO
    TITLE "4:cjc005_0357"
    INDEX 01 00:49:00
  TRACK 40 AUDIO
    TITLE "0:"
    INDEX 01 00:50:09
  TRACK 41 AUDIO
    TITLE "5:cjc005_0358"
    INDEX 01 00:50:33
  TRACK 42 AUDIO
    TITLE "0:"
    INDEX 01 00:54:42
  TRACK 43 AUDIO
    TITLE "3:cjc005_0359"
    INDEX 01 00:55:24
  TRACK 44 AUDIO
    TITLE "0:"
    INDEX 01 00:57:19
  TRACK 45 AUDIO
    TITLE "4:cjc005_0360"
    INDEX 01 00:57:52
  TRACK 46 AUDIO
    TITLE "0:"
    INDEX 01 00:58:69
  TRACK 47 AUDIO
    TITLE "5:cjc005_0361"
    INDEX 01 00:59:16
  TRACK 48 AUDIO
    TITLE "0:"
    INDEX 01 01:03:69
  TRACK 49 AUDIO
    TITLE "3:cjc005_0362"
    INDEX 01 01:04:47
  TRACK 50 AUDIO
    TITLE "0:"
    INDEX 01 01:06:12
  TRACK 51 AUDIO
    TITLE "4:cjc005_0363"
    INDEX 01 01:06:42
  TRACK 52 AUDIO
    TITLE "0:"
    INDEX 01 01:08:03
  TRACK 53 AUDIO
    TITLE "5:cjc005_0364"
    INDEX 01 01:08:29
  TRACK 54 AUDIO
    TITLE "0:"
    INDEX 01 01:13:16
  TRACK 55 AUDIO
    TITLE "3:cjc005_0365"
    INDEX 01 01:13:65
  TRACK 56 AUDIO
    TITLE "0:"
    INDEX 01 01:15:09
  TRACK 57 AUDIO
    TITLE "4:cjc005_0366"
    INDEX 01 01:15:39
  TRACK 58 AUDIO
    TITLE "0:"
    INDEX 01 01:16:69
  TRACK 59 AUDIO
    TITLE "5:cjc005_0367"
    INDEX 01 01:17:18
  TRACK 60 AUDIO
    TITLE "0:"
    INDEX 01 01:20:36
  TRACK 61 AUDIO
    TITLE "3:cjc005_0368"
    INDEX 01 01:21:16
  TRACK 62 AUDIO
    TITLE "0:"
    INDEX 01 01:22:41
  TRACK 63 AUDIO
    TITLE "4:cjc005_0369"
    INDEX 01 01:22:72
  TRACK 64 AUDIO
    TITLE "0:"
    INDEX 01 01:24:28
  TRACK 65 AUDIO
    TITLE "5:cjc005_0370"
    INDEX 01 01:24:51
  TRACK 66 AUDIO
    TITLE "0:"
    INDEX 01 01:28:61
  TRACK 67 AUDIO
    TITLE "3:cjc005_0371"
    INDEX 01 01:29:41
  TRACK 68 AUDIO
    TITLE "0:"
    INDEX 01 01:30:64
  TRACK 69 AUDIO
    TITLE "4:cjc005_0372"
    INDEX 01 01:31:18
  TRACK 70 AUDIO
    TITLE "0:"
    INDEX 01 01:32:51
  TRACK 71 AUDIO
    TITLE "5:cjc005_0373"
    INDEX 01 01:33:01
  TRACK 72 AUDIO
    TITLE "0:"
    INDEX 01 01:36:54
  TRACK 73 AUDIO
    TITLE "3:cjc005_0374"
    INDEX 01 01:37:34
  TRACK 74 AUDIO
    TITLE "0:"
    INDEX 01 01:38:67
  TRACK 75 AUDIO
    TITLE "4:cjc005_0375"
    INDEX 01 01:39:19
  TRACK 76 AUDIO
    TITLE "0:"
    INDEX 01 01:40:72
  TRACK 77 AUDIO
    TITLE "5:cjc005_0376"
    INDEX 01 01:41:20
  TRACK 78 AUDIO
    TITLE "0:"
    INDEX 01 01:45:24
  TRACK 79 AUDIO
    TITLE "3:cjc005_0377"
    INDEX 01 01:46:00
  TRACK 80 AUDIO
    TITLE "0:"
    INDEX 01 01:47:21
  TRACK 81 AUDIO
    TITLE "4:cjc005_0378"
    INDEX 01 01:47:46
  TRACK 82 AUDIO
    TITLE "0:"
    INDEX 01 01:49:51
  TRACK 83 AUDIO
    TITLE "5:cjc005_0379"
    INDEX 01 01:50:02
  TRACK 84 AUDIO
    TITLE "0:"
    INDEX 01 01:54:13
